<?xml version='1.0' encoding='utf-8'?>
<svg xmlns="http://www.w3.org/2000/svg" width="1323.2mm" height="1819.2mm" version="1.1" viewBox="0 0 1323.2 1819.2"> <g transform="translate(1497.6 921.71)"> <g transform="translate(-4688.3 -17.659)"> <path d="m3190.7-904.06h1323.2v1819.2h-1323.2z" fill="#f2eeed" stroke-width="1.4212"/> <path d="m3313.7-741.5c-6.54-1.5592-11.549-5.5143-14.469-11.424-1.9516-3.9502-2.4494-7.5196-2.4397-17.497 0.014-15.004 3.0348-23.365 10.589-29.315 3.9406-3.1035 6.0666-3.7494 13.641-4.1443 7.6933-0.4018 10.097 0.049 16.855 3.0879 13.922 6.2802 18.854 12.958 18.847 25.518 0 9.3778-3.049 16.088-10.417 22.961-9.411 8.7797-22.68 13.18-32.606 10.813z" fill="#ffce34" stroke-width="1.26"/> <path d="m4234.6-619.67c-4.2794-2.6945-8.8282-10.929-15.233-27.578-5.3048-13.789-18.789-38.184-37.409-67.676-27.675-43.835-35.745-60.046-35.745-71.804 0-7.643 4.2749-12.824 12.718-15.413 8.3314-2.5547 14.409-2.4352 33.781 0.6658 8.8658 1.4189 25.047 3.1716 35.959 3.895 33.367 2.212 41.097 4.9369 46.809 16.501 3.0603 6.1961 3.4098 8.2435 3.4098 19.97 0 14.009-2.5614 36.055-9.2879 79.942-2.3206 15.14-4.8691 32.426-5.6633 38.411-1.8317 13.806-4.7726 20.977-9.6777 23.596-5.2775 2.8184-14.765 2.5716-19.661-0.5105z" fill="#7bbfec" stroke-width="1.26"/> <path d="m4176.2-615.9c-3.6128-1.3255-10.309-4.4323-14.88-6.904-9.9536-5.3827-63.047-22.226-127.35-40.4-63.013-17.81-75.673-22.51-90.879-33.744-15.031-11.104-14.232-27.14 2.3916-47.994 9.4846-11.899 23.561-22.942 50.432-39.563 26.585-16.446 34.19-20.065 46.388-22.077 21.53-3.5515 31.556 4.5067 85.905 69.043 15.686 18.626 33.016 38.786 38.512 44.801 19.267 21.085 41.184 47.428 43.311 52.055 3.7951 8.2581 0.7268 16.831-8.4923 23.727-4.0462 3.0263-6.0755 3.6369-11.828 3.5596-3.8191-0.054-9.8997-1.1778-13.513-2.5033z" fill="#7bbfec" stroke-width="1.26"/> <path d="m4275-585.49c-10.709-7.4519-12.5-17.272-5.6002-30.702 7.2615-14.134 20.73-56.902 32.96-104.67 6.8607-26.793 12.507-38.65 24.022-50.445 9.711-9.9474 22.129-17.873 38.896-24.825 13.053-5.4117 21.945-6.5106 29.279-3.6188 14.472 5.7074 18.519 20.992 18.685 70.566 0.088 26.587-1.801 41.886-6.3149 51.123-4.0948 8.38-11.92 17.533-21.757 25.449-17.07 13.737-85.487 63.67-91.742 66.957-7.3304 3.852-13.053 3.9022-18.428 0.1597z" fill="#7bbfec" stroke-width="1.26"/> <path d="m3653.5-573.04c-8.5499-3.2379-20.416-13.225-43.985-37.019-12.74-12.862-35.494-34.555-50.563-48.206-15.07-13.651-32.925-30.018-39.679-36.369-6.7536-6.3515-17.022-15.318-22.819-19.925-70.161-55.76-70.957-56.258-97.096-60.695-2.5954-0.4403-5.8038-1.921-7.1298-3.2906-2.9981-3.0956-3.1189-9.0342-0.2409-11.835 11.066-10.768 17.685-14.1 33.652-16.946 9.5752-1.7063 24.497-2.0752 91.042-2.2498 80.286-0.208 99.041 0.4927 131.62 4.934 7.528 1.0265 25.126 3.0293 39.107 4.4506 49.021 4.9845 59.746 7.7461 69.602 17.923 7.9983 8.2591 10.304 16.37 9.4235 33.159-0.9958 18.999-5.9278 32.25-32.349 86.914-26.979 55.818-45.053 83.355-58.523 89.167-5.6031 2.4171-15.659 2.4118-22.061 0z" fill="#b4ddfb" stroke-width="1.26"/> <path d="m4218.1-531.6c-18.254-2.9418-30.428-19.019-30.163-39.836 0.2689-21.159 15.479-35.462 37.711-35.462 15.339 0 29.634 8.3267 36.17 21.069 3.8326 7.4712 3.7037 21.915-0.2779 31.132-7.1631 16.582-25.005 26.069-43.44 23.098z" fill="#ffce34" stroke-width="1.26"/> <path d="m3920.8-517.87c-19.88-5.8187-29.221-20.964-36.128-58.581-5.0109-27.29-4.4649-42.866 1.9277-54.994 6.7303-12.769 17.186-16.433 46.834-16.412 29.792 0 64.598 4.3111 115.37 14.221 14.322 2.7956 39.683 7.6599 56.358 10.81 39.013 7.3697 61.239 12.665 68.248 16.26 8.8476 4.5381 10.411 9.1296 8.6709 25.461-0.7697 7.2221-1.9335 14.161-2.5865 15.421-1.7934 3.46-7.7975 6.1554-13.762 6.1781-6.1679 0-10.707 1.1072-41.91 10.009-45.047 12.851-98.927 24.694-135.16 29.707-25.63 3.5465-59.07 4.4922-67.862 1.9192z" fill="#7bbfec" stroke-width="1.26"/> <path d="m4396.6-477.47c-3.7508-1.2703-20.211-9.1794-36.579-17.576-31.698-16.26-43.666-21.526-62.562-27.525-24.396-7.7453-28.384-12.056-27.516-29.744 0.3029-6.1681 7.9326-12.725 18.719-16.086 15.404-4.8005 45.269-21.583 66.708-37.487 14.357-10.65 23.576-15.196 32.518-16.033 11.746-1.0999 20.525 5.3237 26.927 19.701 5.4546 12.251 6.5884 23.177 6.535 62.972-0.064 48.102-2.008 59.615-10.636 63.003-4.1972 1.6477-6.1288 1.4798-14.114-1.2248z" fill="#7bbfec" stroke-width="1.26"/> <path d="m3379.2-467.53c-3.4099-0.6499-13.733-2.8575-22.939-4.9054-9.2067-2.0485-23.088-4.6288-30.848-5.734-17.149-2.4427-19.348-2.9669-25.244-6.0166-5.5106-2.8498-8.8413-8.9215-10.754-19.602-1.6562-9.2516-1.7111-40.74-0.107-61.502 0.6529-8.4503 2.0502-28.616 3.1052-44.813 2.2928-35.197 7.5513-88.997 9.3549-95.708 0.7097-2.6408 1.8939-4.8015 2.6317-4.8015 0.7377 0 3.4682-1.984 6.0676-4.409 5.7181-5.3342 11.384-6.6268 19.855-4.5286 11.547 2.86 13.626 5.9247 21.959 32.361 4.0409 12.82 11.552 33.725 16.692 46.455 28.907 71.592 46.361 126.42 47.655 149.7 0.5894 10.601 0.4054 11.883-2.2991 16.005-4.2985 6.5527-9.8875 8.9859-20.25 8.8175-4.7738-0.078-11.47-0.6732-14.88-1.3231z" fill="#b4ddfb" stroke-width="1.26"/> <path d="m3508.6-457.53c-3.203-0.9353-7.9459-3.219-10.54-5.0743-2.5938-1.8558-7.3928-5.309-10.664-7.6745-15.753-11.388-32.346-39.948-51.481-88.611-14.39-36.596-28.26-68.653-45.149-104.35-21.321-45.064-29.479-63.985-29.466-68.338 0.019-6.6901 5.3453-16.322 13.362-24.169 6.9147-6.7681 7.9811-7.3619 13.221-7.3619 7.7264 0 17.875 4.9477 37.884 18.469 41.505 28.048 66.217 50.96 113.36 105.1 55.527 63.771 68.697 80.18 75.057 93.522 7.7403 16.235 6.1908 30.926-4.7389 44.932-16.836 21.574-58.431 43.628-84.477 44.789-6.4091 0.2855-12.822-0.1985-16.364-1.2312z" fill="#b4ddfb" stroke-width="1.26"/> <path d="m4028.5-320.12c-20.808-11.844-42.166-33.877-75.065-77.441-29.282-38.773-36.72-53.006-36.86-70.528-0.072-9.0299 1.9237-13.808 8.1088-19.416 6.6902-6.0654 14.34-8.3293 61.543-18.213 24.21-5.0694 53.225-11.678 64.478-14.685 11.253-3.0077 39.152-10.409 61.998-16.448 22.846-6.0388 46.52-12.783 52.609-14.986 11.023-3.9895 11.084-3.9962 14.26-1.5597 5.618 4.3108 4.8028 7.4176-6.134 23.372-5.5318 8.0699-11.353 16.113-12.936 17.873-2.8842 3.2084-37.528 61.168-50.853 85.077-3.904 7.0053-12.002 22.85-17.995 35.21-16.555 34.143-24.316 48.351-32.65 59.769-12.312 16.868-17.992 19.099-30.505 11.977z" fill="#7bbfec" stroke-width="1.26"/> <path d="m4359.4-235.75c-4.3038-1.772-8.519-6.0717-11.143-11.365-2.2387-4.5173-7.8874-22.432-23.012-72.981-16.201-54.149-39.678-112.98-69.998-175.41-10.74-22.112-11.555-24.73-9.3806-30.104 2.2167-5.478 7.763-8.6098 12.673-7.1556 5.869 1.7377 13.545 6.17 30.066 17.36 8.5878 5.8168 23.426 15.068 32.974 20.558 55.501 31.914 75.132 52.746 87.967 93.345 6.4222 20.315 7.4722 30.292 7.4228 70.52-0.064 51.788-3.2519 68.969-15.167 81.734-10.079 10.798-32.006 17.776-42.403 13.496z" fill="#7bbfec" stroke-width="1.26"/> <path d="m4149.9-219.11c-13.867-3.0047-42.127-12.547-53.011-17.9-14.938-7.3464-18.955-13.112-18.955-27.206 0-10.716 3.8164-24.121 16.638-58.441 28.036-75.042 65.436-163.28 82.133-193.78 5.608-10.243 7.7071-12.956 11.189-14.458 3.984-1.719 4.7543-1.628 10.933 1.2931 8.6861 4.1061 11.122 8.6239 9.9364 18.425-0.4672 3.8601-1.6688 9.3976-2.6704 12.305-1.8143 5.2662-3.7805 32.263-6.633 91.072-0.7516 15.492-1.8887 33.642-2.5271 40.331-1.6498 17.287-3.6782 62.929-3.6804 82.812 0 35.208-6.7638 61.077-17.414 66.642-4.2413 2.2159-12.213 1.88-25.937-1.0942z" fill="#7bbfec" stroke-width="1.26"/> <path d="m4277.6-161.9c-9.9299-1.9226-24.598-6.1143-33.69-9.627-13.389-5.1727-23.547-15.144-27.293-26.791-1.0811-3.3618-1.7964-37.868-2.6171-126.26-1.5317-164.97-1.5243-171.93 0.188-178.2 3.8242-14 19.389-16.2 29.225-4.1298 4.9215 6.0394 7.1319 11.119 15.551 35.732 4.2135 12.32 11.213 32.195 15.554 44.166 6.7171 18.522 38.628 117.01 53.213 164.23 10.546 34.142 14.622 58.28 12.067 71.448-0.8107 4.1772-3.0206 10.188-4.9109 13.357-8.5109 14.267-32.241 20.927-57.286 16.077z" fill="#7bbfec" stroke-width="1.26"/> <path d="m3464.3-54.494c-13.153-2.9451-19.691-10.149-22.35-24.627-1.8465-10.054 0.5282-77.209 3.6092-102.06 9.8312-79.298 19.952-117.51 35.167-132.76 6.8539-6.8707 11.435-8.1086 29.373-7.9372 18.152 0.1741 30.246 3.3012 48.918 12.65 31.527 15.788 46.07 32.024 47.489 53.02 1.1391 16.862-3.953 29.419-26.072 64.294-23.261 36.676-35.085 58.744-54.291 101.33-15.488 34.345-19.598 38.142-41.103 37.97-7.0174-0.059-16.35-0.906-20.738-1.8887z" fill="#7bbfec" stroke-width="1.26"/> <path d="m3403.7-33.428c-11.474-2.2255-16.971-6.8479-55.09-46.328-49.945-51.728-59.084-64.677-60.244-85.354-1.7508-31.23 23.671-75.123 52.448-90.557 42.917-23.017 68.97-3.3362 74.878 56.561 0.6945 7.0421 1.5908 29.392 1.9918 49.666 0.6796 34.347 0.939 37.579 3.8022 47.374 7.9187 27.088 9.3801 34.527 8.9828 45.722-0.3242 9.136-0.8658 11.543-3.3743 14.996-4.9557 6.8198-13.739 9.7934-23.395 7.9207z" fill="#7bbfec" stroke-width="1.26"/> <path d="m3535.3-6.0141c-4.0879-0.827-12.707-9.0992-14.893-14.293-2.789-6.6262-2.6057-17.538 0.4123-24.565 1.3729-3.1967 6.0746-10.399 10.448-16.005 4.3734-5.6057 11.818-15.954 16.543-22.996 24.395-36.358 54.268-76.783 73.8-99.869 34.366-40.62 43.328-47.635 59.344-46.452 31.419 2.3214 65.187 50.772 74.761 107.27 1.3827 8.1593 2.8132 23.937 3.2084 35.385 0.6747 19.542 0.5642 20.978-2.0422 26.538-6.8861 14.688-23.169 21.445-68.28 28.331-11.935 1.8216-27 4.4749-33.479 5.8957-6.4788 1.4207-17.08 3.6714-23.559 5.0012-6.4789 1.3303-19.034 3.912-27.899 5.7373-43.395 8.9342-60.992 11.514-68.363 10.022z" fill="#7bbfec" stroke-width="1.26"/> <path d="m3453.8 36.874c-6.5399-1.8679-14.436-10.297-17.159-18.317-6.6596-19.615-4.0237-51.159 4.9965-59.796 6.995-6.6979 18.368-7.8816 33.781-3.5152 20.066 5.6847 28.456 16.053 29.493 36.445 0.608 11.962-0.7726 17.706-6.2404 25.971-9.2168 13.93-30.885 23.207-44.871 19.213z" fill="#ffce34" stroke-width="1.26"/> <path d="m3298 43.3c-11.128-5.947-13.243-13.775-12.035-44.555 0.8342-21.27 3.6007-34.577 9.8443-47.353 8.0701-16.512 20.115-20.31 37.52-11.829 8.4176 4.101 20.399 11.104 48.034 28.071 13.068 8.024 16.722 9.6437 30.984 13.731 8.0061 2.2948 10.127 4.9646 9.8452 12.392-0.403 10.615-6.6852 18.958-16.852 22.379-3.4614 1.1648-18.638 6.6191-33.726 12.121-30.893 11.266-48.168 16.249-59.985 17.302-6.8587 0.6108-8.8897 0.2759-13.63-2.2589z" fill="#7bbfec" stroke-width="1.26"/> <path d="m3617.6 190.53c-10.304-2.887-22.685-18.88-44.921-58.024-16.261-28.625-30.087-49.694-42.012-64.018-13.676-16.427-17.267-22.478-17.414-29.341-0.1032-4.8068 0.6535-6.2904 7.0418-13.804 8.1254-9.5569 13.425-12.45 28.786-15.715 20.017-4.2547 36.343-5.8458 72.326-7.0494 20.243-0.6774 42.664-1.8829 49.825-2.6794 15.611-1.7367 49.622-2.2336 56.072-0.8202 5.831 1.2784 11.456 6.1308 14.97 12.914 2.482 4.7912 2.7297 7.0603 2.6725 24.486-0.05 15.311-0.6126 21.483-2.7738 30.44-7.0655 29.281-27.216 63.2-50.09 84.315-33.002 30.465-58.323 43.824-74.483 39.297z" fill="#7bbfec" stroke-width="1.26"/> <path d="m3327.5 197.96c-13.004-4.9539-26.701-23.11-32.407-42.956-5.8953-20.506 1.9583-43.961 21.499-64.207 8.7003-9.014 14.158-13.178 30.44-23.225 28.196-17.397 38.737-23.29 56.992-31.864 17.917-8.4148 22.77-9.1911 29.183-4.6679 5.8966 4.1592 12.546 18.303 13.309 28.309 1.1111 14.574-4.6375 25.735-34.386 66.758-19.312 26.632-55.386 65.594-64.531 69.698-7.8701 3.5321-14.592 4.2528-20.099 2.1545z" fill="#7bbfec" stroke-width="1.26"/> <path d="m3472.9 244.95c-41.599-7.0275-46.53-8.5921-55.126-17.485-7.8258-8.0959-10.041-14.874-8.9781-27.469 1.0279-12.178 4.0821-20.236 18.929-49.936 7.2012-14.406 15.236-32.314 17.856-39.797 2.6198-7.4819 6.4619-18.213 8.5381-23.846 2.0763-5.6334 4.9913-15.979 6.478-22.99 2.1758-10.26 3.4085-13.476 6.3169-16.479 3.2662-3.3725 4.2362-3.6777 10.089-3.1769 8.5421 0.7317 17.507 5.4038 24.586 12.814 10.31 10.792 22.155 39.69 32.694 79.766 8.5896 32.664 9.8871 40.381 9.9021 58.897 0.014 14.675-0.3243 17.402-2.8378 23.047-5.9623 13.388-16.846 20.594-37.869 25.074-10.451 2.2275-22.934 2.8731-30.577 1.582z" fill="#7bbfec" stroke-width="1.26"/> <path d="m4364.9 664.8c-19.802-7.2777-37.037-28.174-54.521-66.103-18.087-39.237-28.955-79.357-47.727-176.18-17.491-90.22-21.738-123.96-20.708-164.53 0.6553-25.822 2.6953-35.42 9.6294-45.304 7.5092-10.704 26.337-20.032 47.08-23.327 21.246-3.3739 54.264 1.7503 73.089 11.343 10.569 5.3861 21.833 15.985 26.043 24.508 4.3186 8.741 8.4768 27.771 9.8622 45.135 0.694 8.697 1.9004 36.555 2.6809 61.906 1.4978 48.646 1.5296 47.777-4.3706 119.07-3.2756 39.582-4.752 89.335-4.0315 135.85 0.3829 24.721 0.1969 49.054-0.4133 54.072-1.3237 10.885-4.6298 18.127-10.117 22.162-5.4312 3.9934-17.669 4.636-26.497 1.3913z" fill="#9bcdee" stroke-width="1.26"/> <path d="m4279.5 694.04c-16.529-4.1506-37.971-22.238-63.09-53.219-39.252-48.412-53.186-66.683-72.686-95.303-7.8428-11.512-27.658-39.43-44.034-62.042-30.673-42.354-51.471-73.488-62.528-93.605-10.481-19.069-17.359-40.411-17.414-54.035-0.077-19.153 11.364-40.421 30.883-57.413 15.416-13.42 47.66-33.963 67.755-43.167 27.166-12.444 47.434-9.0828 66.973 11.105 14.382 14.86 21.77 30.391 35.858 75.384 8.9859 28.698 16.679 59.056 24.076 95.011 2.7528 13.38 8.3707 40.663 12.484 60.629 7.5461 36.627 17.609 79.563 25.551 109.02 3.15 11.683 7.4613 22.747 15.966 40.972 16.657 35.696 19.461 45.994 14.967 54.967-2.5121 5.0158-8.5413 9.9808-14.033 11.556-5.1748 1.4838-15.112 1.5515-20.731 0.1404z" fill="#9bcdee" stroke-width="1.26"/> <path d="m4263.3 750.43c-14.16-3.2601-24.179-6.772-24.179-8.4758 0-0.8349-5.7478-2.6999-13.33-4.3249-7.3313-1.5718-31.185-7.1045-53.008-12.295-21.823-5.1901-52.233-12.081-67.578-15.314-48.828-10.286-110.48-24.777-125.73-29.552-45.93-14.379-66.784-28.662-81.824-56.046-15.767-28.706-17.256-59.891-5.0845-106.52 2.3896-9.1548 7.3736-28.744 11.076-43.532 8.1629-32.609 16.797-58.984 22.462-68.615 5.0193-8.534 14.246-17.753 21.765-21.745 15.385-8.1706 39.19 0.9416 60.624 23.206 8.1487 8.4637 14.339 16.981 27.28 37.533 48.207 76.559 75.601 117.68 93.421 140.25 9.6499 12.218 43.114 50.083 56.303 63.707 23.425 24.196 44.118 41.463 59.144 49.35 8.8141 4.6268 12.56 6.0515 33.368 12.695 8.7686 2.7996 17.306 6.0128 18.973 7.1404 9.1062 6.1607 8.7397 21.263-0.7394 30.472-3.6102 3.5069-4.7636 3.8568-13.482 4.0921-5.548 0.1499-13.682-0.6974-19.454-2.0267z" fill="#9bcdee" stroke-width="1.26"/> <path d="m4363.8 789.93c-11.031-1.667-30.454-8.5218-37.296-13.162-8.9996-6.1031-13.319-13.236-13.917-22.984-1.0025-16.332 7.8771-32.342 31.424-56.656 13.914-14.367 15.58-15.679 22.451-17.669 14.478-4.1942 25.132-1.701 35.842 8.3873 7.5634 7.1246 11.133 14.827 12.325 26.593 1.3659 13.484-3.0604 39.41-9.291 54.42-7.3343 17.668-20.354 24.273-41.537 21.071z" fill="#ffcf1d" stroke-width="1.26"/> <path d="m4014.1 809.11c-43.879-1.9952-48.594-4.4076-72.437-37.065-21.342-29.231-23.853-42.336-10.54-55.007 10.76-10.242 23.332-13.518 47.949-12.497 25.9 1.0748 46.527 5.6377 116.3 25.728 45.843 13.199 56.674 15.927 99.757 25.125 31.687 6.7647 41.47 8.6597 62.618 12.129 45.547 7.4726 52.078 10.096 52.078 20.918 0 3.957-3.5984 9.6569-7.4344 11.777-7.1076 3.928-17.957 5.3628-48.984 6.4791-17.732 0.6383-45.631 1.7282-61.998 2.4215-33.855 1.4353-145.67 1.429-177.31 0z" fill="#9bcdee" stroke-width="1.26"/> <path d="m3524.2 814.46 0.8028-6.2485-19.552-0.6523c-21.892-0.7303-31.681-2.9436-55.878-12.635-32.308-12.94-27.235-11.916-59.772-12.064-28.277-0.1307-29.429-0.2372-38.924-3.6003-16.947-6.006-27.683-15.187-34.626-29.613-4.3419-9.0202-13.87-39.3-16.808-53.415-3.7639-18.083-4.9293-29.301-6.9534-66.939-1.0225-19.014-2.7227-40.332-3.7782-47.374-1.0556-7.0419-2.7319-18.278-3.7254-24.967-2.0301-13.673-2.3376-47.901-0.5634-62.738 0.6314-5.2816 1.9949-21.539 3.0299-36.128 2.0419-28.782 3.1906-36.161 6.0973-39.162 3.9275-4.0553 5.3054-0.049 6.1844 17.989 2.6607 54.595 13.171 94 36.872 138.24 19.553 36.495 37.408 59.285 84.06 107.29 38.862 39.992 37.819 38.668 55.464 70.409 7.9283 14.262 20.104 26.88 35.181 36.458 6.4745 4.1128 12.624 7.7084 13.665 7.9895 1.5175 0.4113 2.3346-2.2337 4.1194-13.325 4.1282-25.654 16.3-80.376 23.852-107.23 0.9794-3.4827 1.3598-6.7481 0.8454-7.2558-4.0904-4.0388-23.464-17.68-24.466-17.228-4.138 1.8679-22.29 7.211-28.933 8.516-9.4432 1.8554-28.735 0.8919-39.293-1.9623-12.909-3.4894-26.595-11.553-48.34-28.482-35.224-27.423-39.619-33.125-53.218-69.058-3.6964-9.7673-9.7579-24.96-13.47-33.763-10.629-25.203-15.103-41.002-18.314-64.659-2.6123-19.249-6.3767-34.575-16.039-65.299-12.908-41.046-15.547-54.609-15.444-79.383 0.072-17.184 0.4856-20.822 3.9351-34.57 4.4408-17.698 13.567-41.353 16.744-43.401 4.0695-2.6233 6.426 0.557 7.3347 9.899 1.1392 11.709 2.5312 15.667 12.344 35.102 14.558 28.83 17.736 39.803 19.748 68.18 3.9351 55.506 6.0189 64.888 22.184 99.869 16.263 35.194 17.353 38.931 23.061 79.072 1.728 12.153 4.5455 27.097 6.2611 33.211 6.2293 22.196 21.252 46.415 40.218 64.839 13.236 12.857 22.553 17.554 36.617 18.46 9.8216 0.6329 32.966-1.5311 36.21-3.3855 1.0181-0.5822-3.3646-5.4292-12.711-14.058-66.387-61.289-107.14-135.04-124.56-225.41-12.749-66.148-14.646-152.53-4.3173-196.64 4.7089-20.111 6.9731-24.967 11.64-24.967 5.8482 0 6.2748 5.553 1.9968 25.984-6.1945 29.585-7.3513 42.535-7.4008 82.847-0.028 24.259 0.4312 38.906 1.2886 40.943 1.2103 2.8765 1.4202 2.468 2.2479-4.3726 5.059-41.811 30.503-74.254 62.927-80.237 6.3127-1.1648 8.8797-1.1987 9.9141-0.1307 1.501 1.55 1.5359 1.4972-11.661 17.606-7.5647 9.2336-8.0732 10.723-10.811 31.658-1.6087 12.301-3.9956 17.226-14.521 29.962-4.5562 5.5133-10.391 13.37-12.966 17.46-8.5172 13.526-14.675 38.893-12.95 53.346 0.4648 3.8922 1.3211 11.975 1.9032 17.96 1.3312 13.691 9.9387 41.592 20.359 65.996 7.6889 18.006 24.074 49.237 25.833 49.237 0.5144 0 0.9403-3.313 0.9465-7.362 0-4.0494 1.4559-13.7 3.2216-21.446 5.2043-22.83 5.2123-25.63 0.1095-38.006-5.9833-14.512-7.3056-20.365-7.3145-32.379-0.013-13.271 2.419-23.596 9.6465-41.007 7.5969-18.3 7.7523-23.433 1.2217-40.331-8.3078-21.497-7.4818-41.798 2.5005-61.458 4.9035-9.6572 13.044-20.305 19.176-25.082 7.7097-6.0064 41.029-22.037 63.185-30.398 30.068-11.348 38.118-13.067 36.958-7.8913-0.3412 1.5219-22.117 22.344-37.354 35.719-9.0177 7.9154-20.547 23.292-25.533 34.054l-4.4493 9.603-0.1401 24.327c-0.1312 22.72-0.3669 25.088-3.5706 35.851-6.3593 21.362-6.7892 24.482-6.8095 49.41-0.028 34.673-3.4849 46.256-21.728 72.81-14.587 21.232-19.21 32.375-19.21 46.304 0 17.247 9.7761 32.053 45.13 68.354 18.233 18.722 53.144 50.565 55.435 50.565 0.4119 0 2.8141-6.6529 5.3384-14.784l4.5897-14.784-8.85-9.7853c-10.672-11.8-15.201-18.427-19.753-28.906-7.6239-17.55-8.3351-32.128-3.2598-66.819 4.054-27.709 4.225-52.169 0.6057-86.625-4.1887-39.875-2.4889-64.967 5.8605-86.518 7.4254-19.165 17.094-33.9 50.616-77.141 28.848-37.211 44.726-53.608 73.841-76.253 27.7-21.546 45.857-39.832 62.25-62.696 61.585-85.896 61.978-86.37 66.703-80.345 1.8308 2.3343 2.3685 6.4563 3.0868 23.661 1.465 35.089-2.1449 57.238-13.053 80.087-11.52 24.131-28.631 44.227-71.876 84.42-37.323 34.687-54.414 61.542-71.942 113.04-9.5064 27.929-15.546 41.106-34.04 74.261-29.225 52.394-40.673 78.024-48.04 107.55-4.7193 18.916-6.1464 45.37-3.0419 56.386 1.9848 7.0434 11.688 23.513 13.7 23.255 0.5957-0.076 4.8333-10.393 9.4168-22.925 43.989-120.27 94.275-217.65 190.82-369.49 30.644-48.198 49.324-78.289 61.476-99.029l8.3492-14.25-4.4363-6.3761c-8.3623-12.019-14.105-29.427-16.795-50.909-0.7053-5.6339-1.8225-25.799-2.4826-44.813-1.3447-38.735-3.144-52.407-9.5208-72.341-5.6404-17.632-11.935-29.512-33.243-62.738-9.7094-15.14-20.073-31.836-23.031-37.101-16.829-29.959-28.832-65.342-34.105-100.54-2.7715-18.5-3.6722-49.831-1.9124-66.527 1.6059-15.237 7.8349-41.752 13.397-57.028 4.7173-12.955 6.0359-13.038 21.4-1.3448 40.962 31.175 48.653 41.891 63.774 88.862 8.4799 26.341 14.835 42.382 27.767 70.088 23.969 51.352 29.293 71.022 29.252 108.07-0.038 32.582-2.8935 49.296-18.495 108.19-11.213 42.326-12.339 49.109-12.331 74.261 0 19.929 0.9871 27.696 5.0056 39.646 0.751 2.2333 10.703-16.451 19.136-35.925 11.668-26.948 26.24-72.414 30.329-94.627 9.6498-52.431-4.5644-133.5-39.622-225.99-23.589-62.229-45.438-109.06-65.212-139.78-3.7074-5.7587-5.9719-7.5506-17.344-13.723-22.37-12.141-38.892-13.895-60.623-6.4336-14.14 4.8546-20.245 9.4382-42.513 31.919-23.389 23.612-32.429 30.795-49.94 39.678-33.822 17.157-64.834 18.933-125.4 7.1808-50.074-9.717-76.356-7.7261-107.71 8.1585-23.732 12.022-43.371 29.866-64.731 58.818-13.628 18.471-17.339 19.716-22.405 7.5138-9.732-23.441-11.414-78.552-3.3942-111.2 9.4706-38.551 30.866-57.111 69.45-60.247 11.607-0.9431 30.715 0.9442 53.318 5.267 8.8658 1.6956 23.652 4.5197 32.859 6.276 50.248 9.5849 79.732 12.82 108.9 11.948 24.135-0.721 37.232-2.8237 68.613-11.016 45.233-11.808 55.964-13.487 80.602-12.611 15.657 0.5559 21.676 1.3694 34.108 4.6083 8.3029 2.1632 18.034 5.086 21.625 6.4947 3.5911 1.4092 6.695 2.391 6.8975 2.1815 1.3116-1.354-33.276-39.359-39.912-43.856-2.151-1.4571-4.3334-1.086-15.914 2.7095-7.3821 2.4187-17.699 5.3366-22.926 6.4835-12.443 2.7303-34.126 2.7149-45.464-0.048-10.841-2.6272-34.099-13.914-34.099-16.547 0-2.3498 8.4424-5.7005 26.659-10.58 12.246-3.2803 15.603-3.6466 32.859-3.5823 13.29 0.047 21.704 0.707 27.272 2.131 4.4288 1.133 8.2316 1.8753 8.4506 1.6488 1.0342-1.0675-50.54-41.521-72.517-56.879-8.9191-6.2329-13.119-12.703-10.724-16.522 2.1566-3.4383 8.5472-2.2816 19.722 3.5694 30.323 15.876 73.07 50.292 116.76 94.008 6.3083 6.3113 11.47 11.122 11.47 10.69 0-0.4307-2.1447-4.1395-4.7659-8.2382-2.6212-4.0988-8.2525-13.99-12.514-21.98-4.2613-7.99-11.242-20.089-15.513-26.888-13.185-20.988-17.029-30.508-19.407-48.063-2.8893-21.327 1.2147-37.394 19.573-76.628 6.5025-13.897 14.177-32.301 17.055-40.898 5.4052-16.148 7.666-19.456 11.542-16.892 2.7868 1.8442 2.6042 5.0492-1.0483 18.397-4.1226 15.066-4.1476 39.111-0.068 65.778 3.1772 20.77 3.6661 36.178 2.7271 85.946-0.4574 24.246-0.1836 31.388 1.5502 40.423 4.4074 22.968 15.138 47.486 30.779 70.329l10.082 14.724-0.8417-6.4018c-0.4631-3.521-1.3466-19.078-1.9636-34.57-0.8069-20.266-1.8168-31.221-3.5995-39.051-5.0907-22.359-4.694-32.988 2.3931-64.109 6.0443-26.541 5.0699-33.423-7.0751-49.97-14.503-19.759-20.624-34.536-22.6-54.552-3.6038-36.524 11.678-78.918 38.609-107.11 18.261-19.116 45.465-33.54 75.196-39.872 15.613-3.3245 58.703-7.3603 62.533-5.8572 5.0514 1.983 4.6102 7.5245-0.9084 11.404-6.2136 4.3688-45.835 46.446-55.665 59.114-23.817 30.695-37.848 59.014-44.406 89.626-4.1641 19.438-3.9918 47.933 0.4607 76.182 4.4693 28.357 5.0084 35.646 3.5342 47.786-1.6652 13.712-6.537 28.49-17.277 52.404-15.15 33.733-19.865 53.327-18.005 74.82 0.7164 8.2789 1.9969 11.884 11.058 31.129 19.655 41.748 38.306 89.158 52.243 132.8 5.3341 16.702 10.043 30.386 10.463 30.409 0.4203 0 2.0461-2.9834 3.6123-6.6805 2.4595-5.8052 2.9216-9.4336 3.3892-26.601 0.5143-18.887 0.3767-20.389-2.7541-30.089-3.7625-11.657-8.4765-20.276-25.892-47.34-23.152-35.98-29.366-53.357-30.219-84.504-0.4775-17.437-0.2358-20.37 2.6237-31.844 5.4439-21.844 17.89-43.378 33.691-58.29 7.0732-6.6748 8.5208-7.3469 11.554-5.3638 1.7949 1.1735 1.723 2.4758-1.0299 18.676-2.5421 14.959-3.7786 50.734-2.5773 74.562 1.7959 35.618 4.5115 50.906 16.094 90.606 9.594 32.884 10.567 38.446 10.524 60.178-0.028 14.312-0.5935 21.271-2.2196 27.311-2.9525 10.967-7.1644 20.479-11.313 25.549-2.6026 3.1802-3.2645 5.053-2.7153 7.6822 0.3993 1.9119 2.1804 10.391 3.9578 18.841 9.1438 43.475 12.527 88.909 8.7708 117.79-1.0989 8.4501-3.3369 20.768-4.9733 27.373l-2.9753 12.009 12.336-12.649c17.977-18.434 17.811-18.068 17.686-38.897-0.089-14.957-0.7462-20.388-4.8775-40.331-4.3394-20.949-4.7733-24.796-4.7656-42.253 0.013-16.053 0.6795-23.093 4.0964-42.892 3.7216-21.565 4.0309-25.293 3.4529-41.612-0.5598-15.81-1.2572-20.343-5.9082-38.411-9.9305-38.578-11.087-44.927-11.079-60.818 0.013-15.937 1.4988-25.022 7.0372-42.892 2.8415-9.1687 4.0925-11.602 6.1224-11.907 3.4196-0.5144 26.521 22.114 32.821 32.149 2.5682 4.0911 5.9594 11.293 7.5361 16.005 2.8556 8.5343 2.8661 8.8126 2.779 74.505l-0.087 65.939-6.9309 28.168c-3.812 15.493-8.6988 38.539-10.859 51.215-5.0191 29.445-9.4998 51.542-11.84 58.39-1.0125 2.9634-1.6455 5.5892-1.4068 5.836 1.3489 1.3929 28.442-38.945 39.815-59.28 5.6382-10.08 5.7814-10.592 4.4214-15.808-2.7067-10.38-1.6572-32.204 2.6792-55.718 3.9266-21.291 4.0193-22.619 4.2444-60.818 0.2499-42.336 0.95-49.01 6.9715-66.437 5.1384-14.872 8.9771-19.045 12.055-13.106 2.7833 5.3699 7.4289 24.907 8.7835 36.939 2.4787 22.016-0.9797 41.162-16.137 89.338-3.9881 12.676-8.4102 27.752-9.8269 33.502-2.5403 10.312-3.5376 28.595-1.5597 28.595 2.0202 0 18.037-39.598 25.636-63.379 4.2753-13.38 10.135-34.698 13.022-47.374 9.0233-39.616 11.675-46.734 17.41-46.734 8.2178 0 6.3486 21.738-5.7539 66.915-3.0245 11.29-5.2607 20.774-4.9694 21.075 0.2915 0.3001 2.6733-0.9126 5.2934-2.6964 12.564-8.5533 31.497-12.866 56.222-12.805 23.781 0.059 43.483 3.551 45.855 8.1284 1.9228 3.7098-1.0501 5.8617-14.028 10.155-22.012 7.2805-27.066 8.0707-57.866 9.0463-24.383 0.7724-30.146 1.3265-35.307 3.3951l-6.168 2.4725-7.5232 19.178c-4.1379 10.548-8.4058 20.906-9.4846 23.018-4.8047 9.4109-4.1654 10.179 3.2675 3.9275 8.8795-7.4678 21.843-14.188 41.616-21.574 8.5465-3.1919 24.044-9.3411 34.439-13.665 27.839-11.579 34.753-13.252 54.799-13.258 20.02 0 31.662 2.7564 55.35 13.131 15.531 6.8024 19.648 9.7684 18.362 13.228-0.9967 2.6825-1.445 2.8243-23.197 7.33-17.716 3.67-26.194 6.3878-75.314 24.138-27.099 9.7931-39.586 11.018-72.73 7.1384-18.433-2.1583-31.197-1.6497-38.946 1.5514-5.3098 2.1941-14.819 14.065-30.622 38.229-23.517 35.959-52.009 67.403-76.468 84.391-4.5597 3.1668-5.3218 4.6762-11.873 23.515-3.8506 11.072-9.0886 25.029-11.64 31.014-13.992 32.823-42.163 81.641-87.554 151.72-29.1 44.929-77.813 123.79-81.467 131.88-0.6622 1.4668 1.733-1.1837 22.433-24.827 8.2558-9.4296 22.433-24.511 31.506-33.516 16.178-16.056 16.542-16.539 18.906-25.108 5.0349-18.246 13.944-32.16 38.457-60.066 21.63-24.623 27.116-32.903 42.156-63.632 15.662-31.999 18.7-37.326 37.76-66.211 7.6671-11.62 23.709-37.078 35.648-56.576 30.919-50.492 41.73-64.679 68.61-90.042 9.542-9.0038 13.775-12.201 15.766-11.908 4.4968 0.6607 4.004 5.2157-1.2415 11.476-16.228 19.368-27.024 41.078-32.66 65.678-1.2994 5.671-4.0768 22.41-6.1719 37.199-4.7874 33.79-8.5495 49.412-15.417 64.018-9.8451 20.94-24.886 36.133-65.784 66.448-65.111 48.263-81.598 61.746-93.688 76.609-6.3492 7.8062-15.679 23.56-14.608 24.666 0.2418 0.2517 8.6941-6.3631 18.783-14.695 51.691-42.686 105.96-73.246 152.45-85.84 7.4498-2.0184 14.853-4.5546 16.451-5.6361 3.9279-2.6572 11.44-18.808 13.146-28.262 0.9086-5.0351 1.1412-17.491 0.675-36.146-1.3102-52.422 3.6287-83.924 17.734-113.11 15.23-31.517 41.915-57.887 76.907-76.002 35.24-18.244 65.878-24.947 123.38-26.994 38.894-1.3844 59.671-5.249 85.557-15.913 21.902-9.0221 60.698-32.115 80.591-47.971 14.196-11.315 14.884-11.639 17.957-8.4667 3.0816 3.1822 3.2164 8.8475 0.6103 25.637-7.2609 46.775-25.106 74.735-58.86 92.218-18.704 9.6885-38.06 14.453-85.592 21.068-77.834 10.833-110.03 18.423-136.89 32.27-29.551 15.238-55.214 40.617-70.61 69.828-7.2547 13.765-12.174 25.79-22.407 54.773-9.4013 26.626-15.725 39.799-23.782 49.54l-5.499 6.6471 20.184-0.5966c32.993-0.9751 33.498-1.0487 42.376-6.1753 19.275-11.131 42.213-31.743 52.532-47.206 3.3954-5.0878 10.228-17.024 15.185-26.524 11.829-22.674 19.533-35.384 29.164-48.12 21.451-28.366 52.707-47.987 89.862-56.413 17.092-3.8753 62.32-3.3061 95.375 1.2006 38.258 5.2162 49.169 4.5004 64.109-4.2061 12.052-7.0232 13.222-3.3339 4.9487 15.609-11.559 26.466-27.562 43.124-55.026 57.275-19.882 10.244-36.734 14.673-63.856 16.782-47.453 3.6893-63.63 6.6964-85.85 15.958-20.762 8.6535-37.672 19.817-68.818 45.431-25.457 20.935-40.152 30.052-57.904 35.924-4.9087 1.6234-8.6825 3.3572-8.3862 3.8523 0.2963 0.4952 3.7546 1.2988 7.685 1.7857s10.955 1.7624 15.611 2.8353c7.7073 1.7755 9.5933 1.7556 21.079-0.2225 24.967-4.3007 41.622-11.612 79.25-34.79 40.835-25.153 71.444-38.517 99.419-43.405 16.186-2.8285 39.517-1.958 52.799 1.9699 11.12 3.2887 25.169 10.231 33.212 16.411 14.337 11.016 31.732 31.428 31.045 36.427l-0.3992 2.9035-26.659 6e-4c-30.329 0-38.122 1.1188-72.538 10.403-57.928 15.628-74.706 19.751-92.377 22.701-31.131 5.1952-45.151 6.5008-69.438 6.4656-18.917-0.048-25.169-0.529-35.655-2.8619-10.275-2.2866-14.915-2.6776-24.179-2.0373-7.1155 0.4911-19.195 0-31.846-1.2553-36.338-3.6488-62.189-2.2232-89.148 4.9166-6.3647 1.6855-11.841 3.3419-12.169 3.6812-0.328 0.3387 2.3684 1.0283 5.9924 1.532 3.6241 0.5038 20.539 4.5315 37.588 8.9506 40.51 10.5 48.109 11.471 79.978 10.219 41.729-1.6399 52.078-0.7906 52.078 4.2745 0 3.1644-2.7516 5.5239-12.032 10.318-10.192 5.2646-25.695 9.8024-39.427 11.54-26.999 3.4164-46.124 0.901-101.06-13.291-33.993-8.7822-41.049-9.8546-61.759-9.387l-18.219 0.4113-13.534 8.125c-28.824 17.306-59.15 39.73-86.322 63.831-16.81 14.91-53.611 51.685-52.682 52.644 0.3586 0.3726 1.9052-0.4931 3.4369-1.9182 4.6335-4.3113 18.678-13.973 30.919-21.27 16.215-9.6662 98.1-51.273 112.86-57.344 48.279-19.861 88.852-18.689 129.22 3.7329 12.294 6.8281 15.282 9.9586 12.803 13.41-1.7909 2.4933-50.981 18.77-66.025 21.847-14.513 2.9689-28.097 4.4472-54.558 5.9383-57.207 3.2224-73.536 6.6552-109.71 23.066-10.586 4.8023-28.454 12.305-39.707 16.672-11.253 4.3668-22.412 8.9825-24.799 10.257-9.1255 4.872-23.287 18.351-39.129 37.243-6.7067 7.9978-15.014 17.742-18.462 21.654-9.5413 10.826-39.426 70.948-61.658 124.05l-2.3789 5.6817 6.5654-6.368c3.6109-3.5021 14.933-13.549 25.16-22.326 19.865-17.049 32.484-29.619 48.988-48.799 5.6659-6.5853 16.771-19.398 24.678-28.472 69.163-79.381 159.28-122.74 229.04-110.2 12.345 2.2192 36.226 9.0884 38.601 11.103 2.4763 2.1008 1.8952 8.4028-0.9181 9.9571-1.3574 0.7507-10.752 3.0202-20.878 5.0444-35.881 7.1727-58.581 17.226-95.691 42.376-12.616 8.5505-30.471 19.901-39.678 25.223-42.783 24.733-46.821 27.971-86.798 69.596-43.495 45.289-48.566 48.77-100.44 68.97-26.028 10.135-39.221 16.446-42.571 20.364-3.6611 4.2826-22.105 58.703-36.078 106.45-3.1379 10.723-13.12 49.968-13.027 51.215 0.028 0.3532 3.3143-6.3879 7.3065-14.977 14.659-31.541 28.01-46.49 60.376-67.606 43.93-28.66 57.131-41.755 95.514-94.747 8.1613-11.267 19.245-25.96 24.63-32.649 26.508-32.929 60.298-60.985 107.21-89.013 19.316-11.542 31.854-20.05 41.51-28.172 7.0883-5.9614 11.342-7.1935 12.654-3.6643 1.9563 5.2641-10.281 55.35-19.017 77.834-16.684 42.941-33.266 64.839-75.446 99.629-11.594 9.5623-27.646 23.188-35.671 30.28-38.091 33.66-65.527 51.129-116.84 74.398-47.466 21.523-72.253 36.819-88.757 54.774-14.368 15.631-20.953 28.76-24.523 48.894-1.4284 8.0567-2.368 14.885-2.0879 15.174 0.9259 0.9563 24.756-7.5007 29.81-10.579 8.4798-5.1648 15.234-11.985 30.36-30.657 23.038-28.438 37.019-40.986 55.099-49.451 17.654-8.2657 23.116-8.7884 80.696-7.7237l22.319 0.4112 22.939-6.0102c36.345-9.5231 51.488-9.3837 72.964 0.6707 9.567 4.4796 21.008 11.802 33.673 21.553 5.1147 3.9377 10.834 8.1787 12.71 9.4248 3.6015 2.3919 4.4516 6.1714 1.86 8.2673-0.8525 0.6896-5.177 1.9506-9.6098 2.8028-22.479 4.3208-40.677 12.612-61.998 28.247-28.188 20.67-34.06 22.42-71.298 21.248-26.866-0.8454-43.05 0.3678-67.578 5.0734-37.004 7.0957-46.999 8.3114-94.546 11.498-16.83 1.1285-36.622 3.2567-44.95 4.8344l-14.88 2.8183-0.3886 4.1612-0.3885 4.1612h-16.282z" fill="#738d44" stroke-width="1.26"/> </g> </g> </svg>