<?xml version='1.0' encoding='utf-8'?>
<svg xmlns="http://www.w3.org/2000/svg" width="1322.9mm" height="1826.9mm" version="1.1" viewBox="0 0 1322.9 1826.9"><g transform="translate(4445.8 3526.5)"><g transform="matrix(.88725 0 0 .88725 462.69 -1821.5)"><path d="m-5532.3-1921.6h1491v2059h-1491z" fill="#fdfae9" stop-color="#000000" stroke-linecap="square" stroke-width="9.8055" style="paint-order:markers stroke fill"/><path d="m-4841.5-1120.5c-19.973-3.6401-26.019-9.0119-37.748-33.539-4.6639-9.7533-12.733-24.299-17.931-32.324-5.1979-8.0251-9.4507-15.15-9.4507-15.834 0-0.6832-2.5511-4.059-5.6685-7.5018-25.79-28.478-32.159-51.123-27.744-98.646 4.2409-45.644 2.0521-62.24-11.746-89.051-6.3396-12.319-19.567-31.248-71.293-102.03-29.718-40.663-45.764-64.406-64.81-95.893-7.3826-12.205-16.972-27.972-21.31-35.038-15.658-25.507-25.636-48.289-28.692-65.513-1.9288-10.873-1.0018-32.95 1.7123-40.771 10.072-29.023 29.434-47.146 60.946-57.045 26.376-8.2854 59.047-8.7052 93.855-1.2062 27.734 5.9749 38.528 5.9936 60.734 0.1019 47.007-12.468 56.06-14.36 88.181-18.432 27.22-3.4502 56.215-4.0077 94.605-1.8194 17.987 1.0254 44.266 2.1726 58.398 2.5491 32.454 0.8646 49.005 2.9674 64.822 8.2357 15.236 5.0751 26.076 10.81 48.47 25.642 23.436 15.522 36.813 28.56 43.663 42.556 9.0315 18.452 10.411 37.621 4.3317 60.174-3.9644 14.708-8.2272 25.003-23.686 57.206-42.895 89.355-51.722 105.55-91.064 167.02-26.432 41.301-49.446 79.842-60.677 101.61-15.933 30.886-30.791 68.989-43.721 112.12-14.184 47.315-21.969 66.617-34.418 85.327-10.624 15.966-21.944 24.759-38.532 29.931-8.1859 2.5519-23.33 3.5996-31.227 2.1603z" fill="#c97c34" stroke-width="1.1271"/><path d="m-5313.5-993.24c-38.27-6.0021-62.405-24.745-72.125-56.014-2.5895-8.3302-2.6971-10.019-2.1916-34.455 0.9563-46.211 0.5592-64.491-1.7248-79.421-1.8955-12.39-2.166-22.754-2.3331-89.349-0.1016-41.433-0.5656-79.538-1.0257-84.677-1.1569-12.913 0.9551-37.856 4.055-47.896 1.3871-4.4917 5.1154-14.474 8.2852-22.182 6.1255-14.896 7.5744-21.263 6.338-27.851-0.4215-2.2475-5.4205-11.196-11.109-19.887-17.608-26.899-21.451-39.578-21.466-70.81 0-16.651 0.5946-23.082 4.4317-47.302 4.2402-26.763 4.4222-29.062 4.0259-50.806-1.1005-60.406-0.4016-69.36 7.2096-92.358 7.5015-22.667 14.681-34.718 28.241-47.403 24.741-23.144 58.353-28.512 100.07-15.98 19.207 5.77 33.672 14.922 44.064 27.882 11.056 13.787 16.347 26.59 37.554 90.866 10.863 32.925 22.128 65.428 25.033 72.229 13.521 31.654 44.252 74.094 92.19 127.32 29.23 32.452 41.31 50.309 51.439 76.031 12.706 32.269 16.999 56.578 19.538 110.64 1.8864 40.167 5.7626 57.353 17.253 76.502 9.6962 16.158 29.19 38.141 39.969 45.072 35.73 22.976 41.847 65.617 13.475 93.926-13.938 13.907-25.656 17.596-61.344 19.31-13.169 0.6323-28.483 1.9373-34.032 2.8995-12.812 2.222-35.292 8.8112-63.158 18.513-40.925 14.248-54.899 17.109-97.859 20.038-15.096 1.029-34.805 2.6613-43.799 3.6271-19.212 2.0631-81.006 3.111-91.002 1.5434z" fill="#c97c34" stroke-width="1.1271"/><path d="m-4256.6-970.45c-7.066-0.91616-26.25-3.0181-42.63-4.671-79.371-8.0079-104.67-14.682-200.3-52.837-39.068-15.587-58.337-22.178-76.502-26.167-11.404-2.5039-15.13-2.7041-53.142-2.8564-37.258-0.1485-41.669-0.3757-49.806-2.5636-22.646-6.088-41.227-20.958-50.629-40.518-11.511-23.946-6.9902-45.98 14.617-71.246 3.2961-3.8541 7.0752-9.1099 8.3977-11.679 13.474-26.178 32.547-57.369 49.994-81.757 21.849-30.54 28.932-42.378 46.128-77.085 9.229-18.629 25.82-49.638 36.868-68.91 23.192-40.452 38.507-69.546 45.907-87.209 7.9546-18.987 20.704-59.022 29.321-92.073 9.306-35.693 13.088-47.068 20.768-62.461 20.818-41.728 55.922-71.216 105.39-88.527 29.146-10.2 77.819-25.786 92.494-29.617 20.025-5.2279 41.621-6.633 53.84-3.5026 19.274 4.9378 32.273 15.77 41.533 34.61 6.6399 13.509 9.5694 24.69 11.225 42.844 1.2465 13.666 0.952 20.612-2.3113 54.527-1.5203 15.8-0.3489 25.221 5.9406 47.775 7.2856 26.126 10.117 38.736 12.647 56.327 4.6656 32.441 5.267 43.904 4.9925 95.189-0.1931 36.034 0.2351 56.361 1.5587 74.166 4.4978 60.463 4.4903 82.168-0.047 134.32-3.6171 41.592-4.129 52.423-4.1396 87.597-0.034 89.163-8.9364 140.43-28 161.11-5.4422 5.9036-15.517 11.546-25.147 14.083-9.8347 2.5909-33.517 3.1424-48.959 1.1406z" fill="#c97c34" stroke-width="1.1271"/><path d="m-4834.7-948.35c-12.538-3.0325-23.802-9.3545-32.878-18.451-14.497-14.533-19.856-30.01-18.844-54.427 0.9091-21.936 7.1001-41.237 18.932-59.02 12.196-18.329 27.477-28.679 45.559-30.857 5.1391-0.6188 13.154-1.7666 17.811-2.5502 21.124-3.5546 44.626 6.4808 61.058 26.072 8.2316 9.8133 13.293 19.784 16.468 32.44 2.0987 8.3669 2.387 12.132 1.8791 24.527-1.0507 25.644-7.6256 40.823-25.379 58.591-9.3322 9.3394-12.918 12.059-21.161 16.049-14.777 7.1526-25.44 9.5168-42.396 9.3999-7.9144-0.053-17.166-0.83386-21.051-1.7736z" fill="#616d49" stroke-width="1.1271"/><path d="m-5271.1-340.31c-8.6583-1.3652-20.69-5.8362-28.672-10.654-9.3449-5.6402-24.502-21.879-32.572-34.895-13.41-21.631-27.782-54.556-34.096-78.115-2.664-9.9389-3.0764-14.13-3.575-36.345-0.6264-27.893 0.6324-39.102 6.324-56.324 7.9361-24.012 21.708-37.123 62.258-59.27 7.3873-4.0348 13.816-7.6806 14.286-8.1023 0.47-0.42128-8.9903-0.74965-21.023-0.72907-17.516 0.0339-23.392-0.38013-29.47-2.0561-22.196-6.1204-33.538-17.378-39.62-39.326-6.6244-23.906-8.4192-69.492-4.209-106.91 1.5933-14.161 2.2971-32.973 2.9057-77.669 0.7032-51.651 1.0583-59.781 2.8598-65.406 2.9293-9.1502 6.6254-15.03 13.475-21.437 6.8381-6.396 14.625-10.293 26.34-13.183 11.121-2.744 47.373-2.6938 82.925 0.11674 29.731 2.3482 53.682 2.092 103.95-1.1118 58.197-3.709 74.576-7.2559 117.38-25.419 10.599-4.4977 22.85-9.4022 27.223-10.899s9.5221-4.0427 11.441-5.6574c8.6784-7.3022 36.779-11.166 52.436-7.2112 26.639 6.7295 41.988 26.007 42.033 52.79 0.034 18.273-6.9296 35.293-26.251 64.194-14.614 21.858-22.226 37.058-32.726 65.345-12.639 34.049-19.575 47.044-46.754 87.597-23.841 35.574-24.639 36.963-45.567 79.422-32.686 66.311-37.039 77.208-48.531 121.47-9.0712 34.938-14.698 51.477-23.843 70.078-35.113 71.422-85.946 117.01-134 120.18-4.6602 0.30779-11.379 0.0997-14.932-0.46095z" fill="#c97c34" stroke-width="1.1271"/><path d="m-4265-335.03c-28.168-5.1112-54.709-22.719-79.229-52.561-20.562-25.026-60.84-83.654-95.499-139.01-6.4354-10.278-15.363-24.397-19.839-31.376-9.893-15.425-21.468-39.133-27.103-55.516-2.2974-6.6781-6.5873-21.92-9.5332-33.871-14.541-58.996-18.686-66.049-85.067-144.74-14.805-17.55-31.749-37.592-37.655-44.537-5.9055-6.9456-24.47-26.224-41.254-42.841-16.784-16.617-32.855-33.447-35.712-37.4-17.087-23.644-21.214-54.168-10.431-77.147 4.9608-10.572 12.35-18.075 22.566-22.915l7.8262-3.7073h29.783c28.567 0 30.297 0.14 42.367 3.1961 19.335 4.8969 33.57 11.211 73.261 32.492 31.647 16.968 56.909 25.613 81.672 27.948 13.745 1.2961 24.582 0.53731 49.569-3.471 51.512-8.264 87.59-4.8265 148.24 14.125 26.35 8.2334 37.349 14.106 49.988 26.69 8.5957 8.558 10.9 11.746 16.074 22.242 9.1414 18.54 11.077 27.131 11.18 49.626 0.077 16.44-0.2417 19.741-2.6375 27.447-8.1421 26.191-25.753 44.496-59.129 61.458-19.106 9.71-22.824 12.358-22.824 16.257 0 3.4914 2.6863 6.792 20.401 25.065 37.541 38.724 41.646 56.035 33.929 143.08-3.3089 37.323-1.7216 65.143 5.2643 92.269 1.82 7.0661 6.0494 23.359 9.3992 36.207 5.3893 20.67 6.1544 25.08 6.647 38.311 0.6627 17.799-0.7211 26.257-6.1516 37.606-4.8477 10.13-10.333 16.611-19.741 23.324-9.0623 6.4668-15.719 9.3528-26.898 11.662-10.311 2.1299-18.035 2.1495-29.468 0.0763z" fill="#c97c34" stroke-width="1.1271"/><path d="m-5081.2-302.91c-5.7812-0.51907-16.923-0.99974-24.759-1.0676-11.429-0.0997-16.05-0.67371-23.359-2.9053-5.0114-1.5298-11.696-3.4621-14.854-4.294-7.3293-1.9308-15.106-9.153-16.904-15.7-4.1821-15.222 1.8339-30.609 25.576-65.418 53.373-78.252 67.521-101.98 85.283-143.06 4.5833-10.599 10.27-23.213 12.639-28.031 6.5277-13.28 23.861-40.255 37.369-58.157 25.594-33.918 33.838-48.621 42.152-75.184 23.201-74.123 29.283-88.675 58.498-139.98 23.039-40.458 34.549-56.509 50.151-69.937 14.953-12.869 27.376-17.106 47.352-16.15 23.708 1.1351 43.246 10.14 65.595 30.232 19.302 17.352 35.702 38.36 57.957 74.239 12.341 19.898 19.16 33.293 30.091 59.115 3.8512 9.0966 11.998 26 18.105 37.563 6.1066 11.563 19.717 38.367 30.246 59.566 27.022 54.404 46.518 86.703 74.675 123.71 18.564 24.399 29.466 36.35 58.751 64.405 33.629 32.217 73.19 72.965 82.878 85.366 10.329 13.22 14.844 23.196 15.413 34.056 0.5632 10.733-1.568 16.715-8.2881 23.265-6.4499 6.2863-14.601 10.267-26.708 13.042-8.1195 1.861-16.147 2.3546-47.16 2.8989-20.556 0.36125-40.786 1.1754-44.954 1.8096-4.1685 0.63446-17.886 2.0027-30.482 3.0406-18.764 1.5464-26.786 1.669-44.394 0.67774-70.958-3.9947-86.896-5.6194-98.699-10.062-16.37-6.1612-26.257-15.535-34.493-32.699-6.9605-14.507-39.977-104.74-44.038-120.36-6.9021-26.538-12.268-65.617-14.184-103.31-2.4499-48.188-5.2637-63.017-27.26-143.66-6.0453-22.162-11.915-44.144-13.044-48.849-1.1294-4.7045-2.4791-8.1208-3.0004-7.5915-0.5209 0.52945-2.0612 6.4812-3.4225 13.226-1.3615 6.7449-3.4637 16.205-4.6714 21.023-3.2876 13.112-8.923 48.356-11.112 69.494-2.2808 22.027-8.5849 70.305-12.735 97.525-3.3547 22.005-4.9158 34.281-10.692 84.093-9.797 84.471-17.699 118.05-34.386 146.14-12.748 21.459-35.258 33.74-61.79 33.713-17.266-0.0339-50.05 2.4585-71.935 5.4342-23.067 3.136-49.09 4.2402-65.406 2.775z" fill="#c97c34" stroke-width="1.1271"/><path d="m-4842.1 9.9325c-13.344-6.6056-19.188-25.463-14.916-48.136 1.793-9.5163 3.7712-16.748 13.47-49.239 3.4982-11.719 9.465-44.586 11.663-64.238 2.6399-23.611 3.8513-54.199 4.1866-105.7 0.343-52.759 0.7979-62.092 4.5824-94.014 1.3221-11.152 1.7992-26.932 1.7992-59.512 0-24.384 0.5285-55.397 1.1739-68.917 0.6458-13.52 1.3799-49.021 1.6319-78.892 0.366-43.403 0.829-56.187 2.3067-63.654 1.0676-5.3945 1.8669-15.514 1.8906-23.943 0.072-25.573 4.0136-61.209 7.1928-65.039 1.8009-2.17 6.1373-1.9034 8.2818 0.50954 2.9649 3.3361 10.547 34.72 12.485 51.682 0.6241 5.4601 1.7097 19.388 2.4124 30.951 3.2814 54 6.2179 91.827 8.7491 112.71 2.5265 20.841 4.2594 39.63 7.6483 82.925 0.6788 8.6723 2.2683 25.97 3.5319 38.439 3.8167 37.655 4.906 71.388 3.4733 107.56-0.6994 17.666-1.8026 45.784-2.4509 62.486-1.4995 38.631-4.6228 72.662-10.424 113.59-7.3582 51.907-13.046 75.661-22.891 95.594-11.075 22.426-29.972 32.676-45.798 24.843z" fill="#616d49" stroke-width="1.1271"/><path d="m-5081.8 136.01c0-0.75707 2.6034-12.977 5.7854-27.155 6.307-28.102 10.928-53.033 16.361-88.264 8.2763-53.667 9.6257-78.754 9.1933-170.93-0.3954-84.225-1.8782-76.038 13.626-75.216 16.199 0.85994 46.337 12.542 64.572 25.03 20.734 14.2 37.804 31.732 48.163 49.469 14.798 25.338 20.766 50.33 24.528 102.73 1.2687 17.666 2.821 35.887 3.4498 40.492 4.8413 35.457 14.688 55.604 30.976 63.381 18.817 8.9838 42.146-3.3102 82.968-43.722 27.35-27.076 52.33-55.187 84.05-94.584 40.289-50.039 52.423-63.149 68.326-73.819 18.12-12.158 30.831-16.719 46.596-16.719 35.945 0 58.098 23.337 61.537 64.827 1.4326 17.281-5.4941 49.254-16 73.857-2.6772 6.2696-5.5859 13.101-6.4641 15.182l-1.5966 3.783 6.142-2.5162c20.203-8.2758 46.416-13.43 61.036-12.001 26.066 2.5483 39.794 15.085 43.863 40.058 2.1311 13.078-3.3231 37.268-12.681 56.241-3.0098 6.1027-5.6507 11.49-5.8691 11.972-0.2184 0.48152 4.2669 0.87589 9.9672 0.87589 18.09 0 32.562 5.6098 44.014 17.062 9.5856 9.5855 17.062 26.015 17.062 37.493v3.8424h-349.8c-267.76 0-349.8-0.32115-349.8-1.3767z" fill="#b2a191" stroke-width="1.1271"/></g></g></svg>