<?xml version='1.0' encoding='utf-8'?>
<svg xmlns="http://www.w3.org/2000/svg" width="1323.2mm" height="1819.2mm" version="1.1" viewBox="0 0 1323.2 1819.2"> <g transform="translate(3304.6 722.86)"> <g transform="translate(-5072 -1984.7)"> <path d="m1767.4 1261.9h1323.2v1819.2h-1323.2z" fill="#d1af65" stroke-width="1.4212"/> <path d="m2050.6 1431.4c-20.891-2.7973-40.815-15.211-42.986-26.784-4.1489-22.115 33.94-37.315 69.404-27.698 14.862 4.0304 24.076 14.326 23.979 26.793-0.065 8.2804-2.846 13.637-9.6357 18.556-10.767 7.7997-25.712 11.149-40.762 9.1336z" fill="#fe8c08" stroke-width="1.3209"/> <g fill="#fff3c6" stroke-width="1.3209"> <path d="m2131.6 1403.7c-4.5939-1.8504-7.4409-7.2306-6.4559-12.2 1.0718-5.4068 3.7045-8.5196 11.813-13.967 17.014-11.429 33.149-16.426 58.299-18.057 7.265-0.4692 28.367-3.8481 46.892-7.505 49.201-9.7128 61.967-9.3963 74.779 1.8531 11.874 10.425 11.352 26.625-1.2045 37.372-12.698 10.869-28.716 12.496-58.171 5.9109-23.338-5.2181-31.294-5.1222-54.849 0.6615-25.275 6.2061-62.674 9.3253-71.103 5.9301z"/> <path d="m1892.1 1455.7c-15.732-0.9242-28.883-3.018-36.234-5.7684-18.042-6.7501-26.831-22.496-23.288-41.72 2.9909-16.229 12.364-29.522 25.415-36.043 7.2849-3.6406 9.346-4.0534 20.24-4.0534 18.702 0 62.535 10.003 86.561 19.753 16.65 6.7572 30.496 18.182 32.37 26.711 1.3719 6.247-1.7012 12.467-9.7233 19.68-9.5815 8.6155-18.49 13.804-29.294 17.066-14.389 4.3429-38.936 5.9695-66.045 4.3765z"/> <path d="m2192.2 1749.7c-11.106-1.7109-27.274-7.7377-36.377-13.561-16.682-10.672-24.852-23.623-27.208-43.131-0.7457-6.1751-1.9893-16.874-2.7634-23.776-1.3853-12.348-4.5734-22.92-14.938-49.534-5.4146-13.904-8.8134-29.211-8.8134-39.695 0-10.15 4.0333-29.105 11.189-52.584 3.2903-10.796 5.9824-22.091 5.9824-25.1 0-3.0095-1.1887-11.71-2.6418-19.336-3.6147-18.971-3.5116-26.461 0.4154-30.151 6.2616-5.8826 10.834-3.4078 29.318 15.87 16.588 17.301 26.887 32.25 34.936 50.712 15.587 35.752 18.577 39.511 46.155 58.021 31.72 21.291 47.486 39.096 55.046 62.167 3.5689 10.889 3.8561 13.218 3.7353 30.289-0.1469 20.762-2.6123 32.701-9.618 46.58-10.282 20.368-33.095 32.422-64.222 33.932-6.5386 0.3194-15.627 9e-4 -20.196-0.703z"/> <path d="m2408.9 1752.4c-7.13-3.529-14.394-11.594-18.205-20.212-3.65-8.2535-12.507-35.229-17.181-52.324-4.3307-15.842-17.776-53.628-23.735-66.705-5.5332-12.141-23.855-45.04-33.104-59.442-13.593-21.165-31.939-41.903-59.794-67.587-28.224-26.026-41.571-34.659-61.902-40.04-32.055-8.485-65.654-21.397-67.38-25.895-0.5486-1.4297 0.059-2.9555 1.6616-4.1746 2.0676-1.5721 5.1637-1.7258 17.056-0.8467 16.287 1.2038 20.747 1.2397 67.366 0.5472 43.422-0.6445 51.142 0.2945 91.385 11.109 38.75 10.414 54.882 29.59 72.295 85.938 4.0411 13.077 13.083 40.42 20.093 60.762 36.043 104.59 35.999 104.42 36.478 142 0.2761 21.694 0.11 23.494-2.7129 29.268-2.0255 4.1432-4.4552 6.8386-7.4416 8.2559-5.8157 2.7599-8.2007 2.6554-14.88-0.6511z"/> <path d="m1872.9 1759.3c-22.725-5.9408-36.108-29.233-32.286-56.187 0.728-5.1337 3.9654-19.446 7.1939-31.806 10.982-42.042 13.801-56.033 19.163-95.122 4.7487-34.617 10.824-50.615 24.932-65.649 10.163-10.831 17.192-14.917 46.125-26.817 13.181-5.4213 30.668-13.656 38.86-18.299 21.082-11.95 35.481-19.003 42.295-20.719 12.677-3.1923 23.454 3.9255 23.454 15.49 0 9.898-5.9497 18.905-27.489 41.617-23.117 24.376-32.17 36.635-43.334 58.678-15.529 30.664-19.866 49.12-21.536 91.65-1.3041 33.204-2.5632 39.275-12.208 58.847-9.4773 19.234-26.504 38.91-38.932 44.99-7.4004 3.6204-19.328 5.1327-26.239 3.3258z"/> <path d="m2021.9 1775.2c-13.46-4.7707-25.109-15.506-32.345-29.809-7.2329-14.297-7.6764-19.625-6.3886-76.767 1.2955-57.485 2.378-65.99 11.51-90.438 10.109-27.061 20.291-43.897 45.271-74.852 11.83-14.659 15.042-19.568 16.686-25.5 6.989-25.211 7.6714-26.948 12.633-32.164 4.8139-5.0603 5.223-5.2176 12.084-4.649 14.146 1.1733 20.729 10.261 20.729 28.618 0 19.827-4.1217 33.756-21.062 71.179-14.414 31.844-16.617 60.32-7.402 95.697 1.7614 6.7622 6.5107 22.102 10.554 34.09 11.109 32.936 13.124 45.461 9.819 61.027-3.6747 17.305-16.472 33.478-32.496 41.068-7.6918 3.6428-10.616 4.2864-20.836 4.5864-8.8881 0.2596-13.622-0.2647-18.757-2.0864z"/> </g> <path d="m2953.3 1833.8c-9.7475-5.8437-15.603-17.044-20.235-38.702-5.6266-26.311-4.9103-48.4 2.0746-63.964 9.8452-21.938 30.268-16.555 43.585 11.488 15.554 32.753 11.455 80.063-7.9636 91.903-5.5626 3.3917-10.968 3.1671-17.462-0.7254z" fill="#fe8c08" stroke-width="1.3209"/> <path d="m2540.7 2270.2c-9.4303-1.959-34.209-10.544-45.653-15.818-22.694-10.458-54.836-34.854-65.905-50.022-6.7237-9.2128-20.035-35.611-21.726-43.084-4.8499-21.435-10.073-74.204-12.094-122.18-1.1694-27.764-3.1546-56.673-4.6265-67.366-0.35-2.5427-1.2309-12.053-1.9576-21.134-2.5349-31.68-6.8531-70.696-8.2259-74.323-1.5028-3.971-19.576-21.624-25.189-24.603-3.2392-1.7198-4.0967-1.4683-13.107 3.8392-24.204 14.258-36.555 23.411-52.57 38.956-20.559 19.955-36.032 33.774-61.429 54.864-54.164 44.977-73.168 53.782-125.58 58.184-18.964 1.5925-40.192 1.0149-54.056-1.4714-37.826-6.7825-76.266-32.208-102.8-67.993-5.5244-7.4506-14.248-22.591-23.372-40.563-10.582-20.843-16.806-31.427-22.788-38.749-18.811-23.023-27.259-34.269-28.019-37.299-1.9754-7.8707 7.8846-12.826 13.31-6.6895 6.5468 7.4053 33.425 16.552 57.994 19.737 30.026 3.8916 67.505-3.8386 123.19-25.41 48.813-18.908 65.866-22.856 98.058-22.705 27.476 0.1301 43.072 2.4723 73.31 11.015 13.513 3.8172 30.078 7.516 38.373 8.5685 8.0284 1.018 16.24 2.4758 18.249 3.2396 2.0083 0.7633 5.8418 1.3968 8.5188 1.4079 19.475 0.08 45.935 13.762 67.807 35.067 4.2772 4.1666 8.0674 7.2848 8.4226 6.9293 0.9741-0.9739-5.644-45.351-10.014-67.146-7.5597-37.707-21.605-83.698-34.884-114.23-13.772-31.661-43.046-86.178-58.986-109.85-17.569-26.092-43.094-53.148-71.83-76.139-21.21-16.97-41.594-29.147-70.826-42.31-11.109-5.0025-12.792-6.5935-10.234-9.6759 4.107-4.9484 23.939 0.6631 52.66 14.9 25.002 12.394 46.406 27.494 67.057 47.308 20.44 19.611 32.411 33.84 46.959 55.815 40.633 61.376 72.512 135.06 91.896 212.42 7.8864 31.472 12.668 64.428 20.832 143.6 2.0012 19.405 3.7613 35.157 3.9111 35.004 0.1498-0.1547 7.8295-15.436 17.066-33.961 16.046-32.185 26.719-56.377 29.578-67.046 0.7285-2.7184 2.2463-20.101 3.3726-38.626 1.1267-18.525 2.622-39.033 3.3232-45.571 0.7013-6.5384 1.276-20.507 1.2771-31.041 0-16.248-0.6795-22.759-4.4912-42.929-2.7436-14.518-6.2598-28.406-9.0303-35.665-2.4953-6.5386-6.7787-18.724-9.5187-27.079-2.7398-8.3542-9.9929-28.782-16.118-45.395-17.339-47.028-21.554-65.547-21.557-94.708 0-27.538 4.1158-44.66 15.402-64.035 7.0274-12.063 24.462-30.23 36.656-38.196 25.79-16.847 56.768-28.7 89.843-34.376 16.877-2.8961 58.94-5.9684 81.331-5.9405 30.398 0.05 61.357 5.6225 87.925 15.86 7.9452 3.0614 20.769 7.2019 28.497 9.2015 7.7284 1.9989 14.641 3.9988 15.361 4.4442 2.8614 1.7688 2.7763 6.4277-0.1712 9.3753-2.4141 2.4143-4.9409 3.0863-13.917 3.7013-18.798 1.2885-28.528 7.6783-64.301 42.223-14.778 14.271-18.578 18.917-31.632 38.675-19.702 29.822-28.394 45.509-36.227 65.385-13.988 35.496-20.491 59.949-26.483 99.586-7.3957 48.923-11.438 64.974-22.259 88.383-11.949 25.85-22.952 39.385-63.03 77.534-15.433 14.689-20.521 23.232-26.872 45.119-7.9854 27.515-18.191 49.775-42.283 92.228-14.463 25.485-17.794 34.232-17.871 46.92-0.073 12.058 3.8887 84.26 5.9759 108.91 2.1521 25.412 12.038 69.336 18.484 82.125 5.2311 10.379 18.081 27.057 27.961 36.294 8.9385 8.3559 38.038 28.206 53.188 36.282 5.0856 2.711 17.016 7.352 26.513 10.313 17.293 5.3918 21.7 8.0112 21.7 12.898 0 7.0143-8.9388 9.8245-22.373 7.0333z" fill="#26350e" stroke-width="1.3209"/> <g fill="#fff3c6" stroke-width="1.3209"> <path d="m2958.5 1698.4c-6.8797-3.1243-11.873-9.6498-15.472-20.218-2.7076-7.9513-2.8103-10.246-2.4689-55.188 0.3264-42.999 0.1408-47.729-2.2379-56.97-3.3312-12.942-10.156-26.318-25.188-49.363-22.613-34.669-30.526-54.932-30.719-78.663-0.2316-28.531 10.597-49.776 31.015-60.848 7.6254-4.1352 9.1234-4.4677 20.127-4.4677 15.026 0 21.168 2.8398 34.281 15.851 22.76 22.582 39.193 56.658 45.886 95.146 2.6105 15.012 2.9799 21.706 2.9875 54.117 0 28.768-0.5159 40.507-2.3529 52.836-2.9211 19.606-8.7442 44.464-14.698 62.743-2.4843 7.6283-5.4431 17.622-6.5751 22.209-2.6752 10.841-8.3638 19.035-15.67 22.571-7.0238 3.4004-11.831 3.4628-18.916 0.2447z"/> <path d="m2900.3 1741.8c-6.9013-3.4163-17.328-13.63-23.983-23.494-2.7507-4.0768-11.137-18.112-18.635-31.189-18.846-32.867-28.619-47.364-39.005-57.861-15.213-15.376-28.328-22.999-60.053-34.909-32.163-12.074-43.804-18.856-57.2-33.325-14.272-15.415-21.819-33.456-22.955-54.87-0.8565-16.146 1.4701-27.373 8.409-40.578 20.222-38.483 74.76-53.548 117.82-32.547 22.067 10.761 32.215 25.133 46.183 65.406 11.369 32.779 14.82 40.257 30.831 66.814 7.9988 13.267 16.601 28.192 19.117 33.165 6.0312 11.925 11.679 29.459 13.69 42.506 0.8933 5.7938 3.0795 16.128 4.858 22.964 7.3288 28.168 9.2977 56.306 4.8527 69.352-3.6715 10.775-12.841 14.057-23.932 8.567z"/> <path d="m2870.2 1789.9c-13.477-2.8802-22.126-6.0253-44.791-16.288-26.983-12.219-39.846-15.929-58.24-16.796-23.225-1.0957-33.048 1.1208-85.859 19.376-21.745 7.5166-38.056 10.134-50.288 8.0707-30.476-5.1401-42.97-27.821-34.98-63.499 7.4118-33.096 26.647-66.416 47.688-82.606 31.304-24.088 71.222-25.36 114.19-3.6405 30.115 15.222 48.556 31.474 114.03 100.5 11.86 12.504 22.504 22.734 23.652 22.734 3.0886 0 10.636 6.1816 12.905 10.57 4.2969 8.3093 1.0625 17.235-7.6843 21.207-6.689 3.0368-17.547 3.1702-30.623 0.3744z"/> <path d="m2812.7 2077.3c-21.944-2.3334-46.665-15.661-59.209-31.922-20.544-26.628-18.624-56.015 5.5228-84.534 8.7162-10.294 27.854-25.612 55.83-44.686 30.099-20.522 40.18-29.388 54.634-48.053 19.082-24.642 30.895-33.075 46.254-33.022 15.88 0.055 25.097 7.8017 25.097 21.093 0 9.1911-3.746 19.539-13.377 36.954-6.9235 12.518-9.1456 18.445-16.354 43.619-11.149 38.937-26.351 80.025-38.612 104.37-14.172 28.134-32.302 39.107-59.786 36.184z"/> <path d="m2543.9 2217c-19.585-5.0917-33.57-18.09-44.274-41.149-7.3208-15.771-33.87-95.881-36.553-110.3-5.0513-27.138-2.3456-66.899 6.9284-101.82 14.074-52.989 43.769-93.031 92.724-125.03 31.308-20.464 58.394-27.739 114.81-30.837 26.649-1.4632 41.522-1.0932 117.68 2.9256 22.028 1.1627 30.663 1.1752 34.419 0.05 2.7579-0.8263 12.41-2.1369 21.45-2.9123 9.0397-0.7751 21.785-2.2694 28.324-3.3198 16.205-2.6047 22.908-2.4408 28.034 0.6844 4.9916 3.0433 6.5784 7.8132 4.3719 13.141-3.4194 8.2549-10.321 11.955-29.761 15.955-8.7927 1.8092-16.411 4.5491-26.03 9.3613-22.23 11.12-34.519 19.952-53.808 38.668-21.564 20.923-24.441 23.162-68.106 52.988-18.889 12.902-38.392 26.756-43.341 30.785-13.378 10.893-23.818 22.96-29.739 34.373-8.9968 17.343-11.133 28.492-13.461 70.268-2.1647 38.839-5.8552 58.495-15.832 84.319-11.537 29.862-31.763 51.672-55.264 59.588-10.359 3.4896-24.15 4.4437-32.575 2.2535z"/> <path d="m2965.2 2372.2c-5.6482-3.5646-9.2129-8.4431-12.408-16.983-3.89-10.397-9.9562-41.771-13.872-71.748-9.726-74.447-12.439-84.44-34.738-127.96-19.059-37.194-23.023-51.998-20.182-75.368 2.5892-21.294 10.878-42.942 34.425-89.914 20.34-40.573 34.208-73.278 48.169-113.6 9.8496-28.446 14.32-37.788 19.635-41.028 11.862-7.2335 22.349 0.6784 26.052 19.657 2.3198 11.889 0.788 59.528-2.8749 89.399-4.3964 35.854-4.0024 43.342 4.8313 91.803 9.4152 51.652 10.013 57.622 11.176 111.62 0.5944 27.607 1.8059 59.705 2.6923 71.329 2.8599 37.503 0.084 79.643-6.7735 102.86-8.3393 28.231-27.43 50.21-45.039 51.855-5.4738 0.5112-7.9086 0.09-11.093-1.9196z"/> </g> <path d="m1962 2537.6c-18.941-1.5413-28.967-12.384-26.77-28.95 2.2724-17.13 17.122-30.432 52.974-47.454 30.026-14.256 43.668-15.785 69.548-7.7909 19.484 6.0176 28.981 25.212 19.533 39.475-4.4058 6.6514-12.071 11.666-36.637 23.97-35.885 17.972-54.012 22.755-78.648 20.75z" fill="#fe8c08" stroke-width="1.189"/> <path d="m2573.7 2983c-23.821-6.6109-33.696-27.437-19.091-40.261 9.2161-8.0917 26.904-10.617 52.774-7.5336 20.415 2.4333 28.387 4.6323 36.663 10.114 7.6806 5.0872 11.55 11.158 11.55 18.118 0 14.153-20.676 21.602-59.206 21.33-9.2104-0.064-19.421-0.8605-22.69-1.7678z" fill="#fe8c08" stroke-width="1.3209"/> <path d="m2291.1 2987.9c-2.9279-2.9281-3.8133-5.3079-4.5319-12.181-0.6882-6.5855-2.6605-12.181-8.6098-24.43-4.2443-8.7382-8.8904-17.31-10.325-19.048-2.5134-3.046-2.866-3.1003-9.7745-1.5192-3.9418 0.9026-16.678 6.2863-28.302 11.965-11.624 5.6777-24.107 11.019-27.739 11.868-39.848 9.3207-103.54-4.4314-138.03-29.805-12.431-9.1441-33.701-27.667-36.853-32.094-4.6744-6.5643-5.5969-10.404-3.6305-15.109 2.8917-6.9174 5.3041-8.0708 17.499-8.3642 13.805-0.3346 19.553-2.2317 45.914-15.171 34.096-16.736 52.576-19.273 80.762-11.088 28.536 8.2874 77.452 38.137 102.55 62.582 11.363 11.066 11.707 11.284 11.706 7.4316-5e-4 -2.1831-1.1806-23.582-2.6228-47.553-1.4421-23.971-3.519-62.901-4.6154-86.513-2.1935-47.24-3.4617-63.325-7.3754-93.545-9.0227-69.669-25.668-111.64-56.716-143.02-26.98-27.263-50.64-38.328-87.213-40.787-18.819-1.2655-24.495-2.7729-25.788-6.8482-2.5387-7.9992 6.338-12.936 23.337-12.98 45.093-0.1153 88.048 23.266 119.54 65.066 19.878 26.388 36.207 68.338 42.146 108.27 0.5131 3.4512 1.3659 6.2745 1.8949 6.2745s1.708-2.4903 2.62-5.5342c0.9118-3.0433 5.4538-12.808 10.093-21.698 9.9062-18.982 13.045-29.146 21.123-68.41 10.557-51.308 16.134-70.288 27.598-93.909 9.2334-19.026 20.622-34.8 35.556-49.248 27.95-27.039 56.775-43.931 123.34-72.281 36.096-15.373 56.01-25.748 70.803-36.887 13.794-10.387 17.881-14.768 29.256-31.366 11.509-16.793 14.228-19.511 19.561-19.554 5.9141-0.05 8.4551 2.1158 11.212 9.5421 11.539 31.084 11.644 92.921 0.2261 133.75-7.7408 27.679-18.876 47.06-37.336 64.982-22.986 22.317-47.548 35.205-115.86 60.792-41.476 15.536-53.343 20.641-67.891 29.203-24.956 14.688-41.097 28.932-73.322 64.705-38.337 42.558-39.339 44.04-43.93 64.988-4.5308 20.674-4.2601 70.985 0.6523 121.3 2.7966 28.638 3.5381 43.4 3.5838 71.329 0.029 19.37 0.6366 41.458 1.3444 49.087 0.7077 7.6283 1.6441 22.488 2.0807 33.023 0.7604 18.341 0.6714 19.307-2.1007 22.785-3.6706 4.6065-7.218 4.6045-11.829 0z" fill="#26350e" stroke-width="1.3209"/> <path d="m2849.3 2996.2c-1.7986-2.7454-2.1877-10.773-2.7362-56.469-1.4115-117.59-5.45-167.76-17.341-215.45-11.032-44.248-34.016-78.225-61.093-90.315-23.015-10.276-51.812-5.6279-79.38 12.812-39.23 26.24-64.029 74.339-73.369 142.3-1.1252 8.1879-2.9259 33.197-4.0015 55.575-1.8276 38.027-3.4373 56.26-5.4239 61.437-1.3264 3.4568-5.5743 2.5452-7.7504-1.6634-3.9076-7.5566-5.222-22.635-5.2501-60.228-0.029-39.9 0.9768-51.465 7.1846-82.557 5.0475-25.28 11.434-44.448 21.787-65.385 9.6829-19.583 20.998-35.303 35.516-49.34 5.5248-5.3423 10.045-9.8689 10.045-10.06 0-0.1896-3.5181-1.6294-7.8179-3.197-8.6102-3.1398-20.033-12.454-23.472-19.14-1.1656-2.2667-4.2616-6.2855-6.8797-8.931-20.598-20.814-26.294-58.847-14.411-96.24 4.3565-13.709 8.4011-22.663 19.71-43.632 14.017-25.99 23.624-48.779 23.624-56.04 0-6.9281 2.9731-9.9629 9.7597-9.9629 10.548 0 25.197 19.514 30.74 40.948 3.2058 12.396 2.8828 37.114-0.6587 50.426-4.3586 16.382-10.202 28.659-20.01 42.037-14.74 20.105-21.236 31.071-25.268 42.654-4.503 12.936-4.7094 18.247-1.085 27.933 3.4756 9.2895 10.529 15.516 20.859 18.414 10.398 2.9175 13.682 2.7129 21.701-1.3515 21.254-10.773 44.703-14.435 65.48-10.228l4.4322 0.8977-6.205-8.4292c-7.9353-10.779-16.982-29.472-20.401-42.152-7.6182-28.258-5.8321-60.255 5.1021-91.392 5.6403-16.062 4.4278-20.322-15.626-54.917-20.27-34.968-28.301-55.947-32.624-85.216-1.7288-11.708-2.0241-20.239-1.4044-40.582 0.839-27.544 2.4732-38.828 10.617-73.311 6.9845-29.574 8.7471-41.577 8.7471-59.567 0-35.552-12.369-72.067-27.686-81.737-8.3056-5.2436-10.184-11.036-5.2847-16.296 1.4813-1.59 4.1751-2.8906 5.9861-2.8906 5.9787 0 33.698 13.737 82.518 40.893 58.693 32.648 71.015 40.639 86.563 56.136 29.194 29.099 50.226 75.818 54.926 122.02 3.1505 30.962-4.2965 66.746-20.66 99.274-11.586 23.03-23.562 39.066-60.462 80.958-44.614 50.65-64.134 78.242-72.45 102.41l-2.4165 7.0238 3.2731 8.6958c7.0282 18.672 18.889 35.096 40.878 56.606 39.325 38.469 50.671 75.338 63.587 206.64 1.3811 14.04 2.4375 42.179 2.9689 79.08l0.825 57.285 13.87-10.4c13.071-9.8012 14.195-11.025 19.534-21.275 10.218-19.62 13.294-40.466 8.8191-59.78-1.0941-4.7219-7.5814-25.526-14.416-46.232-14.115-42.759-22.729-76.036-28.418-109.79-12.78-75.817-11.857-133.14 2.8351-176.19 5.6898-16.671 12.375-30.682 26.054-54.607 17.939-31.374 22.222-44.264 24.739-74.446 0.7433-8.914 1.4594-11.403 4.0162-13.96 3.1983-3.1987 7.2297-3.1348 10.513 0.1647 2.8307 2.8456 29.238 65.722 39.191 93.313 10.996 30.483 16.767 58.633 16.767 81.786 0 4.951 1.4626 15.48 3.25 23.398 1.7875 7.9185 4.786 25.979 6.6634 40.135 1.8773 14.156 6.643 42.084 10.59 62.063 11.452 57.967 12.974 68.98 12.959 93.785-0.014 17.223-0.6072 24.584-2.8437 35.089-8.6972 40.854-27.391 74.346-57.861 103.66-18.912 18.197-40.481 30.975-58.715 34.784-5.7635 1.2042-10.872 3.3729-15.19 6.4503-3.5786 2.5501-10.667 6.7192-15.753 9.2653-5.0854 2.5456-10.379 5.8832-11.763 7.4163-3.3583 3.7203-7.9136 3.5415-10.504-0.4144z" fill="#26350e" stroke-width="1.3209"/> <g fill="#fff3c6" stroke-width="1.3209"> <path d="m2628.1 2912.8c-4.2857-3.0013-4.1924-12.729 0.9365-97.672 0.8372-13.866 2.2238-24.542 4.0322-31.041 6.7757-24.356 26.035-53.953 52.088-80.046 21.344-21.376 36.673-31.648 52.202-34.979 17.343-3.7193 33.772 5.7952 42.608 24.675 5.4947 11.742 6.2548 21.623 2.3598 30.677-3.8221 8.8844-10.41 14.644-30.727 26.864-22.402 13.474-35.194 23.193-49.957 37.956-28.126 28.126-46.142 58.473-52.813 88.96-5.3085 24.26-6.7358 28.717-10.478 32.724-4.1706 4.4643-6.0665 4.8127-10.25 1.8817z"/> <path d="m2559.6 2920.2c-11.913-6.8327-20.808-20.068-29.326-43.64-12.51-34.618-15.834-54.834-17.406-105.84-0.6632-21.525-1.8485-43.221-2.6339-48.213-2.8754-18.276-11.778-31.235-28.474-41.45-32.37-19.802-44.446-35.56-44.592-58.186-0.055-8.4845 0.5507-11.298 4.0344-18.742 11.378-24.313 46.142-41.349 79.194-38.808 34.315 2.6375 54.517 19.094 65.07 53.004 4.8102 15.456 4.9694 32.684 0.5616 60.762-3.5745 22.77-3.7365 25.817-3.8265 71.99-0.088 45.27-0.312 49.692-3.6655 72.434-4.5446 30.82-4.4844 37.883 0.5603 65.714 2.3417 12.918 3.758 24.286 3.2687 26.235-2.3417 9.3304-11.456 11.23-22.765 4.7434z"/> <path d="m2652.1 2931.4c-1.5145-1.0608-3.5026-3.7367-4.418-5.9463-1.5921-3.8443-1.2758-4.6335 7.2896-18.198 4.9245-7.7988 14.759-25.342 21.855-38.984 15.447-29.7 21.384-38.311 38.774-56.232 15.853-16.337 26.831-24.713 41.814-31.902 27.299-13.099 48.107-6.4286 61.228 19.627 11.788 23.408 11.212 46.568-1.4539 58.507-6.3781 6.0113-16.26 9.9579-34.101 13.617-22.763 4.6689-34.444 9.3812-53.14 21.438-59.389 38.297-62.328 39.966-70.435 39.989-2.5628 0-5.8986-0.8551-7.4132-1.9161z"/> <path d="m2524.3 2935.9c-13.544-3.3624-33.816-17.316-62.251-42.847-20.022-17.976-37.596-31.382-68.554-52.294-37.627-25.415-50.236-38.231-62.918-63.951-13.827-28.044-13.567-56.347 0.7434-80.765 10.407-17.758 29.393-27.483 53.456-27.38 27.819 0.1194 46.046 11.178 71.883 43.61 21.557 27.061 29.42 45.041 33.907 77.543 6.1704 44.694 9.2353 55.634 23.841 85.093 8.6816 17.511 10.041 19.477 19.175 27.739 11.81 10.681 14.987 15.422 14.987 22.356 0 9.7991-10.213 14.384-24.268 10.895z"/> <path d="m2766.5 2994.5c-2.5428-0.2846-13.539-2.7164-24.437-5.4023-19.199-4.7328-20.572-4.8851-44.25-4.9115-13.44 0-25.465-0.5193-26.722-1.1213-4.0773-1.9541-7.6221-9.3444-7.6221-15.891 0-10.566 5.8408-20.122 15.24-24.934 6.9024-3.5336 52.215-20.286 64.675-23.911 21.596-6.2825 40.643-10.043 50.926-10.056 16.372 0 26.928 6.8251 35.194 22.822 5.13 9.9285 5.1514 23.682 0.054 34.102-10.458 21.376-34.424 32.513-63.057 29.303z"/> <path d="m2388.9 2997.9c-13.575-2.2541-30.264-12.964-40.475-25.974-11.883-15.141-17.171-36.592-13.481-54.685 4.9603-24.323 16.757-37.568 34.828-39.103 11.142-0.9467 22.223 3.586 49.342 20.185 15.629 9.5655 28.386 16.682 57.59 32.127 19.26 10.186 27.496 13.815 34.818 15.342 17.079 3.561 26.061 11.386 27.476 23.937 0.9676 8.5856-2.6943 11.339-17.744 13.341-6.4116 0.853-18.784 3.0797-27.494 4.9484-10.006 2.1458-24.11 3.9135-38.306 4.8002-12.358 0.7714-27.819 2.2162-34.358 3.2101-18.356 2.7908-24.509 3.1487-32.196 1.8722z"/> </g> <g fill="#fff3c6" stroke-width="1.3209"> <path d="m2050.6 2427.4c-1.0899-0.7153-4.3591-1.9531-7.2651-2.7502-15.802-4.3361-31.678-38.355-39.084-83.748-0.8559-5.246-1.9213-36.106-2.4624-71.329-0.9435-61.414-1.0014-62.396-5.3789-91.143-3.8278-25.138-4.4217-32.358-4.3999-53.497 0.029-26.747 1.7486-36.547 9.2092-52.436 7.6945-16.387 26.961-31.179 51.009-39.162 30.231-10.036 81.208-14.433 109.71-9.4626 63.962 11.154 85.839 46.733 50.175 81.6-10.602 10.365-14.991 13.728-39.143 29.991-28.397 19.121-48.468 39.73-65.696 67.454-29.578 47.597-38.437 98.972-29.032 168.36 3.0246 22.318 3.3565 32.067 1.3388 39.333-1.5959 5.7463-7.8806 13.43-13.26 16.212-4.229 2.1866-12.787 2.4988-15.72 0.5722z"/> <path d="m1965.3 2438.3c-11.08-4.6209-35.615-22.319-45.265-32.652-17.126-18.338-32.748-45.135-39.073-67.021-7.284-25.206-9.2198-48.128-10.735-127.12-0.9401-48.997-5.7131-125.69-10.482-168.42-3.7783-33.854-4.1173-48.704-1.4774-64.724 4.0472-24.562 13.818-41.894 27.77-49.26 7.6308-4.0289 21.725-3.966 29.498 0.1301 21.218 11.185 35.502 47.016 45.123 113.19 5.5923 38.464 5.038 67.18-2.5498 132.09-5.8234 49.82-7.0206 67.638-6.168 91.803 0.8308 23.553 3.7075 40.552 9.6498 57.025 1.8825 5.2191 10.104 23.798 18.27 41.287 17.524 37.531 19.653 43.469 19.774 55.146 0.1046 10.138-2.3433 14.731-9.9096 18.589-5.7606 2.9371-17.291 2.9031-24.425-0.07z"/> <path d="m2094.2 2455.2c-2.643-0.6381-6.5018-3.1837-9.0644-5.98-4.1816-4.5626-4.4283-5.3438-3.9179-12.4 0.4533-6.2665 1.9246-9.9575 8.763-21.983 13.594-23.905 13.783-24.838 14.852-73.233 1.0126-45.831 1.6783-50.665 9.7512-70.814 11.429-28.525 21.518-42.058 62.858-84.316 44.39-45.376 53.392-56.425 63.444-77.877 6.3973-13.651 9.247-24.268 15.105-56.271 13-71.026 25.671-104.88 46.546-124.38 14.732-13.762 29.79-17.215 42.041-9.6409 11.564 7.1496 17.185 18.514 20.883 42.222 13.701 87.855 13.314 85.013 16.723 122.84 1.4403 15.983 4.0993 39.586 5.9088 52.451 5.465 38.856 4.1912 64.219-4.2979 85.584-7.871 19.808-22.364 38.371-37.323 47.804-3.9959 2.5198-19.083 10.669-33.527 18.109-55.199 28.434-62.482 34.222-137.14 108.99-43.444 43.508-53.089 52.528-59.17 55.341-8.4767 3.9221-15.979 5.1098-22.434 3.5523z"/> <path d="m2264.5 2514.7c-9.2786-1.628-20.334-6.5411-41.059-18.246-29.102-16.436-43.728-21.368-63.446-21.394-19.557-0.05-30.116-6.2341-30.116-17.707 0-5.1098 0.7492-6.9015 4.7257-11.303 5.476-6.0613 13.36-9.3907 29.384-12.41 20.275-3.8197 47.888-21.234 97.321-61.374 75.656-61.434 132.16-97.254 166.02-105.23 10.8-2.5461 23.026-2.5332 30.301 0.05 11.861 4.1822 19.742 16.477 17.888 27.905-2.3895 14.725-14.92 29.273-41.263 47.909-40.74 28.82-48.202 34.64-61.922 48.295-23.148 23.04-28.935 32.344-57.901 93.102-11.3 23.702-28.504 34.186-49.931 30.426z"/> <path d="m2205.5 2632.4c-8.8111-3.1206-17.055-8.6493-36.585-24.533-19.827-16.126-27.395-20.332-50.276-27.937-29.159-9.6938-44.036-18.368-58.037-33.838-9.4836-10.48-11.584-16.643-7.9723-23.39 3.9758-7.4256 9.7507-9.7511 21.917-8.8265 5.5566 0.4244 14.77 1.951 20.474 3.3972 18.032 4.5726 62.717 19.873 75.658 25.907 28.141 13.12 51.212 32.614 59.802 50.53 12.173 25.39-1.7319 46.926-24.981 38.691z"/> <path d="m2191.1 2806.9c-10.148-3.6295-18.796-9.7437-29.832-21.093-13.44-13.82-22.351-27.942-37.832-59.955-19.732-40.805-27.614-49.949-70.256-81.506-26.789-19.825-40.664-33.773-51.476-51.747-11.522-19.155-13.249-22.897-13.249-28.702 0-6.0094 2.6188-10.162 8.2418-13.07 6.0037-3.1041 15.095-1.575 28.125 4.7319 8.9353 4.3249 13.836 8.0203 26.196 19.754 22.431 21.294 32.013 27.121 70.371 42.802 53.979 22.066 83.32 45.38 100.88 80.157 12.682 25.122 18.972 59.456 14.469 78.979-2.9191 12.655-10.856 24.069-20.038 28.817-6.3356 3.2766-17.726 3.6465-25.597 0.8313z"/> <path d="m2022.5 2844.2c-19.041-6.9944-33.67-27.709-45.228-64.046-11.057-34.762-15.662-47.186-24.534-66.189-23.325-49.964-30.154-77.237-26.667-106.5 4.9843-41.831 10.537-54.767 23.506-54.767 9.6012 0 13.721 7.604 17.069 31.506 4.8322 34.497 18.476 57.52 52.49 88.573 47.411 43.283 61.798 67.667 61.798 104.74 0 39.634-19.411 68.846-45.571 68.582-4.359-0.05-10.147-0.8966-12.862-1.8936z"/> <path d="m1921.1 3004.6c-25.704-2.6824-49.87-14.334-68.622-33.085-23.532-23.533-25.487-33.386-22.666-114.24 2.4813-71.092 5.7307-120.56 10.787-164.21 6.1709-53.276 5.1843-80.287-4.6693-127.85-4.8216-23.274-6.4169-39.882-5.6154-58.457 1.5546-36.035 10.414-60.906 28.042-78.724 9.9224-10.03 17.442-13.797 27.538-13.797 8.9682 0 14.474 2.0783 21.236 8.0157 5.3202 4.6714 17.672 20.341 24.414 30.971 6.9892 11.021 4.9774 22.609-4.4657 25.726-3.5818 1.1818-7.0252 0.8313-19.061-1.9405-13.246-3.0504-15.052-3.1952-18.379-1.4748-5.3554 2.7693-7.1891 7.8115-7.8774 21.661-1.3634 27.437 4.5369 66.278 18.801 123.76 5.4081 21.795 11.969 50.624 14.58 64.064 13.14 67.637 17.882 82.038 44.577 135.39 29.809 59.579 37.722 81.996 38.936 110.3 0.6172 14.391 0.3279 17.915-2.2529 27.442-8.983 33.16-37.002 50.442-75.304 46.445z"/> </g> </g> </g> </svg>